<svg width="390" height="525" viewBox="0 0 390 525" fill="none" xmlns="http://www.w3.org/2000/svg">
<g clip-path="url(#clip0_958_7328)">
<path d="M611 7.99978C654.7 22.87 1095.16 257.557 1313.29 339.116L-20.8642 377.809C-72.5814 324.574 -170.759 15.3528 -86.9999 -58.9986C17.699 -151.938 556.375 -10.5881 611 7.99978Z" fill="#CCD1D4"/>
<path d="M1466.92 524.766L-13.6562 691.554V201.186C465.834 52.8624 693.82 266.054 1001.85 310.816C1248.27 346.626 1427.47 258.972 1486.27 210.669L1466.92 524.766Z" fill="#E2D7D1"/>
<path d="M834.177 413.091C131.025 370.301 -30.6003 413.47 -23.5192 440.404V478.338L1683.53 465.061C1693.39 465.567 1537.33 455.881 834.177 413.091Z" fill="#EFE8DE"/>
<path d="M239.991 275.065C222.819 275.065 148.842 287.508 114 293.73L418.946 294.663C431.934 295.518 460.103 297.556 468.876 298.863C477.649 300.169 482.33 297.074 483.575 295.363C490.341 284.63 469.576 264.798 461.41 262.932C453.244 261.065 443.678 272.498 441.578 269.931C439.478 267.365 425.245 262.698 404.014 274.831C387.028 284.537 367.227 264.565 359.45 253.366C332.152 226.301 306.098 246.367 294.588 260.832C277.975 256.912 266.045 265.887 262.157 270.865C261.923 272.265 257.164 275.065 239.991 275.065Z" fill="#F6E9D9"/>
</g>
<defs>
<clipPath id="clip0_958_7328">
<rect width="390" height="525" fill="white"/>
</clipPath>
</defs>
</svg>
