<svg width="1920" height="705" viewBox="0 0 1920 705" fill="none" xmlns="http://www.w3.org/2000/svg">
<g clip-path="url(#clip0_905_134)">
<path d="M3099.69 359.306C2351.81 352.728 833.207 339.572 741.747 339.572L856.071 -0.679352L1477.37 -125.211L2952.7 -200.066L3099.69 359.306Z" fill="#B2D1E5"/>
<path d="M1084.04 -100.712C1162.43 -74.0367 1964.61 225.248 2355.9 371.556L-37.4279 440.966C-130.203 345.47 -278.189 121.131 -127.935 -12.2471C59.8839 -178.97 986.047 -134.057 1084.04 -100.712Z" fill="#CCD1D4"/>
<path d="M2631.5 704.59H-24.4976V124.122C835.657 -141.955 1244.64 240.487 1797.21 320.787C2239.26 385.026 2560.73 227.785 2666.21 141.134L2631.5 704.59Z" fill="#E2D7D1"/>
<path d="M1496.42 504.252C235.046 427.491 -54.8928 504.932 -42.1901 553.248V621.298L3020.07 597.48C3037.76 598.388 2757.8 581.012 1496.42 504.252Z" fill="#EFE8DE"/>
<path d="M387.886 249.067C337.801 249.067 122.037 285.361 20.415 303.508L909.831 306.228C947.712 308.724 1029.87 314.667 1055.46 318.477C1081.05 322.288 1094.7 313.26 1098.33 308.27C1118.06 276.967 1057.5 219.124 1033.68 213.68C1009.86 208.236 981.964 241.581 975.84 234.095C969.715 226.61 928.205 213 866.279 248.386C816.738 276.695 758.986 218.445 736.303 185.781C656.684 106.842 580.695 165.366 547.123 207.557C498.672 196.124 463.875 222.301 452.534 236.818C451.853 240.901 437.971 249.067 387.886 249.067Z" fill="#F6E9D9"/>
<path d="M1897.46 366.331C1916.32 348.095 1919.92 408.86 1923 420.468C1923 420.468 1592.77 432.915 1477.03 420.468C1413.7 413.657 1168.57 400.628 1054 387.226H1560.81C1566.16 348.475 1609.76 351.874 1630.89 358.417C1661.15 207.719 1795.26 313.143 1789.53 354.934C1789.05 358.421 1794.09 353.668 1795.26 351.135C1802.65 328.087 1834.07 381.316 1845.22 387.226C1857.01 349.868 1893.32 376.145 1893.64 373.929C1893.89 372.156 1896.29 368.125 1897.46 366.331Z" fill="#F9EEDC"/>
</g>
<defs>
<clipPath id="clip0_905_134">
<rect width="1920" height="705" fill="white"/>
</clipPath>
</defs>
</svg>
