<svg width="1920" height="597" viewBox="0 0 1920 597" fill="none" xmlns="http://www.w3.org/2000/svg">
<g clip-path="url(#clip0_905_142)">
<path d="M1283.5 84.9982C1258.7 114.598 1124 131.333 1062 134L1232 140.499L1301 97.9994C1312.67 96.3329 1323.5 80.9989 1306.5 80.9997C1301.89 80.9999 1301.5 80 1283.5 84.9982Z" fill="#08474C"/>
<path d="M1181 154L1927.5 156.5V29.5L1301 81L1181 154Z" fill="#204848"/>
<path d="M-47 393L-25 662L-12.5 799.5L1960.5 825.5L1976 97.5L-25 154L-47 393Z" fill="#20514D"/>
<path d="M1934.5 166C1935.3 185.2 1919.17 193.667 1911 195.5L1861.5 210.5L-2.5 218.5V172L1920 134C1924.5 136.667 1933.7 146.8 1934.5 166Z" fill="#1A6D7B"/>
<path d="M1925 436.5L1936 479C1917.83 510.333 1950.5 631.2 1882.5 672C1797.5 723 927.5 728.5 714.5 684C544.099 648.4 159.5 646.167 -11.5005 649.5V357C-11.5005 357 844.5 721.5 978.5 694C1112.5 666.5 1713.5 512.5 1713.5 512.5L1705.5 472L1732 505L1740.5 436.5L1750.5 498.5L1772 456L1766 498.5L1925 436.5Z" fill="#2F6861"/>
<path d="M783.5 648.5C964.027 664.962 1341.5 699.667 1438.5 709L1121 718.5L-18 667.5V485C296.5 590.5 301 604.5 783.5 648.5Z" fill="#285A57"/>
<path d="M-0.5 709.002V608.502L13.5 576.502C13.3333 590.336 17.2 618.002 34 618.002C50.8 618.002 80.6667 590.336 93.5 576.502C94.6667 592.002 98.4 623.202 104 624.002C109.6 624.802 124.667 610.002 131.5 602.502C131.333 608.336 132 620.802 136 624.002C140 627.202 152.333 611.002 158 602.502C157.333 607.669 158.2 618.602 167 621.002C175.8 623.402 190 595.669 196 581.502C195.333 593.669 195.5 618.602 201.5 621.002C207.322 623.331 213.928 611.726 216.751 605.097C216.832 604.887 216.915 604.689 217 604.502C216.921 604.696 216.838 604.894 216.751 605.097C215.244 609.016 214.647 616.826 223 621.002C231.8 625.402 242 614.836 246 609.002C245.333 612.002 245.7 619.202 252.5 624.002C259.3 628.802 264.667 620.669 266.5 616.002C265.5 621.002 265.5 631.202 273.5 632.002C281.286 632.781 291.282 617.836 295.652 609.661C295.301 608.667 295.58 608.652 296 609.002C295.888 609.216 295.773 609.436 295.652 609.661C296.137 611.034 297.824 614.274 302 621.002C311 635.502 337 577.502 338.5 567.002C340 556.502 337 609.002 347 624.002C355 636.002 359.667 623.669 361 616.002C360.667 622.836 361.4 635.603 367 632.002C372.6 628.402 383 616.502 387.5 611.002C386 618.002 384.5 632.002 390.5 632.002C396.5 632.002 412.667 616.669 420 609.002C419 616.335 419 630.302 427 627.502C435 624.702 443.333 614.002 446.5 609.002C445.333 620.336 444.6 643.302 451 644.502C459 646.002 509 625.502 512.5 615.002C515.3 606.602 516.333 603.169 516.5 602.502C516.667 615.169 518.7 641.602 525.5 646.002C534 651.502 550 613.003 551 609.002C552 605.002 544 654.002 558.5 657.502C570.1 660.302 751 675.502 958.5 697.002L3 725.002L-0.5 709.002Z" fill="#22504E"/>
<path d="M0 273V332L1823 219L0 273Z" fill="#1C6E68" fill-opacity="0.5"/>
<path d="M1920 186.497V211.497C1920 216.5 1917.1 215.198 1901.5 215.998C1882 216.998 41.4996 278.998 13.4996 278.998C-8.90044 278.998 -7.83377 274.665 -4.50044 272.498V211.498C294.5 212.665 948.9 165.797 1174.5 162.997C1456.5 159.497 1639 157.497 1665 169.997C1691 182.497 1597 173.997 1607 182.997C1615 190.197 1819 188.33 1920 186.497Z" fill="#357783"/>
<path d="M-0.5 183.5H6C245 180.333 781 152 993 152C1205 152 1230.33 133.5 1240 118L-0.5 153.5V183.5Z" fill="#6BC1B4"/>
<path d="M1510.5 87.5L1775 76C1714.17 86.5 1608.5 109 1545.5 122C1497.33 131.94 1426 138.5 1422 119.5C1418.8 104.3 1479.67 91.8333 1510.5 87.5Z" fill="#2B5956"/>
</g>
<defs>
<clipPath id="clip0_905_142">
<rect width="1920" height="597" fill="white"/>
</clipPath>
</defs>
</svg>
