<svg width="1932" height="937" viewBox="0 0 1932 937" fill="none" xmlns="http://www.w3.org/2000/svg">
<g clip-path="url(#clip0_576_4)">
<rect width="1932" height="1080" fill="#E2D7D1"/>
<g clip-path="url(#clip1_576_4)">
<path d="M1029.5 229.426C397.5 5.82639 10.6667 361.834 -82.5 502.5C155.5 392.9 1466.17 469.593 2070.5 586.927V413.427C1986.83 445.26 1661.5 453.026 1029.5 229.426Z" fill="#CCD1D4"/>
</g>
<g clip-path="url(#clip2_576_4)">
<path d="M-35.0143 641.545C-482.659 665.969 -197.53 869.538 0.989349 968.27L2171.21 1077C2181.54 1029.87 2095 920.6 1666.16 860.611C1130.1 785.625 524.542 611.015 -35.0143 641.545Z" fill="#EFE8DE"/>
</g>
<g clip-path="url(#clip3_576_4)">
<path d="M302.583 222C603.383 9.19994 1532.25 412 1959.08 640L2066.08 5L79.082 -193C-4.08441 11.3333 -172.417 423.8 -180.417 439C-190.417 458 -73.4173 488 302.583 222Z" fill="#B2D1E5"/>
</g>
<g clip-path="url(#clip4_576_4)">
<path opacity="0.8" d="M1439 851.026C1581.4 861.826 1722.67 904.192 1775.5 924.026L1769.5 931.525L-39.5 938.5C26.5 919.667 140.4 852.525 164 826.525C187.6 800.525 215.833 794.359 227 794.525C242.667 796.025 282.8 796.325 318 785.525C362 772.025 463 795.525 499.5 794.525C536 793.525 614.5 775.526 652 774.026C689.5 772.526 1261 837.526 1439 851.026Z" fill="#49677D"/>
<path opacity="0.8" d="M392 824.5C314.4 831.7 164.333 900.833 58 936V937.5L1777.5 924.525C1715.5 917.025 1613 873.525 1622 879.025C1631 884.525 1638 890.525 1641 900.025C1644 909.525 1560.5 883.525 1484 879.525C1422.8 876.325 958.5 826.858 734 802.525C723.333 801.525 469.6 817.3 392 824.5Z" fill="#375368"/>
<path opacity="0.8" d="M1621.5 878.525C1631.9 883.325 1729.83 911.192 1777.5 924.525L1766 925.525L1637 888.525C1647.75 893.595 1653.37 896.522 1657.5 903.025C1655.1 908.101 1651.82 908.977 1642.5 907.025L1552 888.525L1544 880.025C1578.17 889.025 1641 908.125 1641 900.525C1641 892.925 1628 882.692 1621.5 878.525Z" fill="#214558"/>
</g>
<path d="M150.849 267.565H916.849C850.515 210.398 727.43 198.347 639.349 157.065C556 118 497.5 122 424.849 170.065C374.93 203.09 293.349 63.0649 181.349 103.565C84.138 138.717 119.849 225.565 150.849 267.565Z" fill="#F6E9D9" fill-opacity="0.9"/>
<path d="M705 434.718L541 434.718L600 401.218C647.2 374.418 689.667 412.384 705 434.718Z" fill="#F6E9D9" fill-opacity="0.9"/>
<path d="M1274 236.718L1110 236.718L1169 203.218C1216.2 176.418 1258.67 214.384 1274 236.718Z" fill="#F6E9D9" fill-opacity="0.9"/>
<path d="M1227.5 295.725C1163 252.225 1100 318.225 1085 325.725L1322.5 326.725C1322 326.392 1315.7 322.725 1294.5 310.725C1268 295.725 1251.5 305.725 1247 307.725C1243.4 309.325 1232.5 300.392 1227.5 295.725Z" fill="#F6E9D9" fill-opacity="0.9"/>
<path d="M1574.8 123.932C1485.72 62.0952 1398.72 155.917 1378 166.578L1706 168C1705.31 167.526 1696.61 162.314 1667.33 145.255C1630.73 123.932 1607.95 138.148 1601.73 140.991C1596.76 143.265 1581.71 130.566 1574.8 123.932Z" fill="#F6E9D9" fill-opacity="0.9"/>
</g>
<defs>
<clipPath id="clip0_576_4">
<rect width="1932" height="937" fill="white"/>
</clipPath>
<clipPath id="clip1_576_4">
<rect width="1920" height="430" fill="white" transform="translate(0 157)"/>
</clipPath>
<clipPath id="clip2_576_4">
<rect width="1920" height="439" fill="white" transform="translate(0 638)"/>
</clipPath>
<clipPath id="clip3_576_4">
<rect width="1920" height="640" fill="white"/>
</clipPath>
<clipPath id="clip4_576_4">
<rect width="1920" height="165" fill="white" transform="translate(0 774)"/>
</clipPath>
</defs>
</svg>
