<svg width="72" height="72" viewBox="0 0 72 72" fill="none" xmlns="http://www.w3.org/2000/svg">
<path d="M48 63L47.1 58.5C46.5 58.25 45.937 57.987 45.411 57.711C44.885 57.435 44.348 57.098 43.8 56.7L39.45 58.05L36.45 52.95L39.9 49.95C39.8 49.25 39.75 48.6 39.75 48C39.75 47.4 39.8 46.75 39.9 46.05L36.45 43.05L39.45 37.95L43.8 39.3C44.35 38.9 44.888 38.563 45.414 38.289C45.94 38.015 46.502 37.752 47.1 37.5L48 33H54L54.9 37.5C55.5 37.75 56.063 38.025 56.589 38.325C57.115 38.625 57.652 39 58.2 39.45L62.55 37.95L65.55 43.2L62.1 46.2C62.2 46.8 62.25 47.425 62.25 48.075C62.25 48.725 62.2 49.35 62.1 49.95L65.55 52.95L62.55 58.05L58.2 56.7C57.65 57.1 57.113 57.438 56.589 57.714C56.065 57.99 55.502 58.252 54.9 58.5L54 63H48ZM6 60V51.6C6 49.95 6.425 48.4 7.275 46.95C8.125 45.5 9.3 44.4 10.8 43.65C13.35 42.35 16.225 41.25 19.425 40.35C22.625 39.45 26.15 39 30 39H31.05C31.35 39 31.65 39.05 31.95 39.15C30.5 42.75 29.9 46.325 30.15 49.875C30.4 53.425 31.6 56.8 33.75 60H6ZM51 54C52.65 54 54.063 53.412 55.239 52.236C56.415 51.06 57.002 49.648 57 48C57 46.35 56.412 44.937 55.236 43.761C54.06 42.585 52.648 41.998 51 42C49.35 42 47.937 42.588 46.761 43.764C45.585 44.94 44.998 46.352 45 48C45 49.65 45.588 51.063 46.764 52.239C47.94 53.415 49.352 54.002 51 54ZM30 36C26.7 36 23.875 34.825 21.525 32.475C19.175 30.125 18 27.3 18 24C18 20.7 19.175 17.875 21.525 15.525C23.875 13.175 26.7 12 30 12C33.3 12 36.125 13.175 38.475 15.525C40.825 17.875 42 20.7 42 24C42 27.3 40.825 30.125 38.475 32.475C36.125 34.825 33.3 36 30 36Z" fill="#F1F1F1"/>
</svg>
