<svg width="72" height="72" viewBox="0 0 72 72" fill="none" xmlns="http://www.w3.org/2000/svg">
<path d="M65.1301 60.87L60.8701 65.13C60.308 65.6888 59.5476 66.0024 58.7551 66.0024C57.9625 66.0024 57.2021 65.6888 56.6401 65.13L21.0001 29.55C20.0245 29.8326 19.0156 29.984 18.0001 30C16.09 29.9986 14.2078 29.5413 12.51 28.6661C10.8123 27.7909 9.34795 26.523 8.23885 24.9679C7.12974 23.4128 6.40788 21.6154 6.13328 19.7251C5.85868 17.8349 6.03928 15.9064 6.66006 14.1L14.2801 21.72L15.8701 20.13L20.1301 15.87L21.7201 14.28L14.1001 6.66C15.9065 6.03922 17.835 5.85862 19.7252 6.13322C21.6155 6.40782 23.4128 7.12968 24.9679 8.23879C26.523 9.34789 27.7909 10.8122 28.6661 12.51C29.5414 14.2077 29.9987 16.0899 30.0001 18C29.984 19.0156 29.8327 20.0244 29.5501 21L65.1301 56.64C65.6888 57.2021 66.0024 57.9624 66.0024 58.755C66.0024 59.5476 65.6888 60.3079 65.1301 60.87ZM6.87006 56.64C6.31131 57.2021 5.99768 57.9624 5.99768 58.755C5.99768 59.5476 6.31131 60.3079 6.87006 60.87L11.1301 65.13C11.6921 65.6888 12.4525 66.0024 13.2451 66.0024C14.0376 66.0024 14.798 65.6888 15.3601 65.13L31.7701 48.75L23.2801 40.26M60.0001 6L48.0001 12V18L41.4901 24.51L47.4901 30.51L54.0001 24H60.0001L66.0001 12L60.0001 6Z" fill="#F1F1F1"/>
</svg>
