<svg width="50" height="50" viewBox="0 0 50 50" fill="none" xmlns="http://www.w3.org/2000/svg">
<path d="M24.9999 14.1667C25.6138 14.1667 26.1288 13.9587 26.5448 13.5427C26.9608 13.1267 27.168 12.6124 27.1666 12C27.1666 11.3861 26.9586 10.8712 26.5426 10.4552C26.1266 10.0392 25.6124 9.83189 24.9999 9.83333C24.386 9.83333 23.8711 10.0413 23.4551 10.4573C23.0391 10.8733 22.8318 11.3876 22.8333 12C22.8333 12.6139 23.0413 13.1288 23.4573 13.5448C23.8733 13.9608 24.3875 14.1681 24.9999 14.1667ZM7.0166 44.5L11.3499 14.1667H18.8791C18.7708 13.8056 18.6805 13.4531 18.6083 13.1093C18.536 12.7656 18.4999 12.3958 18.4999 12C18.4999 10.1944 19.1319 8.65972 20.3958 7.39583C21.6597 6.13194 23.1944 5.5 24.9999 5.5C26.8055 5.5 28.3402 6.13194 29.6041 7.39583C30.868 8.65972 31.4999 10.1944 31.4999 12C31.4999 12.3972 31.4638 12.7677 31.3916 13.1115C31.3194 13.4553 31.2291 13.807 31.1208 14.1667H38.6499L42.9833 44.5H7.0166Z" fill="#F1F1F1"/>
</svg>
