<svg width="50" height="50" viewBox="0 0 50 50" fill="none" xmlns="http://www.w3.org/2000/svg">
<g clip-path="url(#clip0_650_4)">
<path d="M41.0156 40.8203H8.98438C8.76953 40.8203 8.59375 40.9961 8.59375 41.2109V44.1406C8.59375 44.3555 8.76953 44.5312 8.98438 44.5312H41.0156C41.2305 44.5312 41.4062 44.3555 41.4062 44.1406V41.2109C41.4062 40.9961 41.2305 40.8203 41.0156 40.8203ZM41.0156 5.46875H8.98438C8.76953 5.46875 8.59375 5.64453 8.59375 5.85938V8.78906C8.59375 9.00391 8.76953 9.17969 8.98438 9.17969H41.0156C41.2305 9.17969 41.4062 9.00391 41.4062 8.78906V5.85938C41.4062 5.64453 41.2305 5.46875 41.0156 5.46875ZM29.8242 18.457C30.1172 18.457 30.2832 18.1152 30.1025 17.8857L25.1807 11.6553C25.1481 11.6131 25.1063 11.579 25.0585 11.5555C25.0106 11.532 24.9581 11.5198 24.9048 11.5198C24.8515 11.5198 24.7989 11.532 24.7511 11.5555C24.7033 11.579 24.6615 11.6131 24.6289 11.6553L19.707 17.8857C19.666 17.9379 19.6405 18.0005 19.6335 18.0664C19.6264 18.1324 19.6381 18.199 19.6671 18.2586C19.6962 18.3182 19.7414 18.3685 19.7977 18.4036C19.854 18.4387 19.919 18.4572 19.9854 18.457H23.2422V31.543H20.1758C19.8828 31.543 19.7168 31.8848 19.8975 32.1143L24.8193 38.3398C24.9609 38.5205 25.2344 38.5205 25.3711 38.3398L30.293 32.1143C30.4736 31.8848 30.3125 31.543 30.0146 31.543H26.7578V18.457H29.8242Z" fill="#F1F1F1"/>
</g>
<defs>
<clipPath id="clip0_650_4">
<rect width="50" height="50" fill="white"/>
</clipPath>
</defs>
</svg>
