<svg width="50" height="50" viewBox="0 0 50 50" fill="none" xmlns="http://www.w3.org/2000/svg">
<g clip-path="url(#clip0_761_3781)">
<g clip-path="url(#clip1_761_3781)">
<path d="M9.17969 41.0156L9.17969 8.98437C9.17969 8.76953 9.00391 8.59375 8.78906 8.59375L5.85938 8.59375C5.64453 8.59375 5.46875 8.76953 5.46875 8.98437L5.46875 41.0156C5.46875 41.2305 5.64453 41.4062 5.85937 41.4062L8.78906 41.4062C9.0039 41.4062 9.17969 41.2305 9.17969 41.0156ZM44.5312 41.0156L44.5312 8.98438C44.5312 8.76953 44.3555 8.59375 44.1406 8.59375L41.2109 8.59375C40.9961 8.59375 40.8203 8.76953 40.8203 8.98437L40.8203 41.0156C40.8203 41.2305 40.9961 41.4062 41.2109 41.4062L44.1406 41.4062C44.3555 41.4062 44.5312 41.2305 44.5312 41.0156ZM31.543 29.8242C31.543 30.1172 31.8848 30.2832 32.1143 30.1025L38.3447 25.1807C38.3869 25.1481 38.421 25.1063 38.4445 25.0585C38.468 25.0106 38.4802 24.9581 38.4802 24.9048C38.4802 24.8515 38.468 24.7989 38.4445 24.7511C38.421 24.7033 38.3869 24.6615 38.3447 24.6289L32.1143 19.707C32.0621 19.666 31.9995 19.6405 31.9336 19.6335C31.8676 19.6264 31.801 19.6381 31.7414 19.6671C31.6818 19.6962 31.6315 19.7414 31.5964 19.7977C31.5613 19.854 31.5428 19.919 31.543 19.9854L31.543 23.2422L18.457 23.2422L18.457 20.1758C18.457 19.8828 18.1152 19.7168 17.8857 19.8975L11.6602 24.8193C11.4795 24.9609 11.4795 25.2344 11.6602 25.3711L17.8857 30.293C18.1152 30.4736 18.457 30.3125 18.457 30.0146L18.457 26.7578L31.543 26.7578L31.543 29.8242Z" fill="#F1F1F1"/>
</g>
</g>
<defs>
<clipPath id="clip0_761_3781">
<rect width="50" height="50" fill="white"/>
</clipPath>
<clipPath id="clip1_761_3781">
<rect width="50" height="50" fill="white" transform="translate(50) rotate(90)"/>
</clipPath>
</defs>
</svg>
