<svg width="50" height="50" viewBox="0 0 50 50" fill="none" xmlns="http://www.w3.org/2000/svg">
<g clip-path="url(#clip0_761_3792)">
<path d="M38.7926 16.6667C39.8573 16.6667 40.8783 17.1057 41.6312 17.8871C42.384 18.6685 42.8069 19.7283 42.8069 20.8333L42.8069 34.9167C44.0313 36.0625 44.8141 37.7292 44.8141 39.5833C44.8141 43.0417 42.1245 45.8333 38.7926 45.8333C35.4607 45.8333 32.7711 43.0417 32.7711 39.5833C32.7711 37.7292 33.5539 36.0625 34.7783 34.9167L34.7783 20.8333C34.7783 18.5417 36.5847 16.6667 38.7926 16.6667ZM38.7926 18.75C37.6887 18.75 36.7855 19.6875 36.7855 20.8333L36.7855 22.9167L40.7998 22.9167L40.7998 20.8333C40.7998 19.6875 39.8966 18.75 38.7926 18.75ZM10.6924 41.6667L10.6924 25L4.6709 25L24.7425 6.25L33.574 14.5C32.6896 15.2796 31.9799 16.2504 31.4946 17.3443C31.0092 18.4382 30.7599 19.629 30.764 20.8333L30.764 33.3333C29.4995 35.0625 28.7568 37.2292 28.7568 39.5833L28.9575 41.6667L10.6924 41.6667Z" fill="#F1F1F1"/>
</g>
<defs>
<clipPath id="clip0_761_3792">
<rect width="50" height="50" fill="white"/>
</clipPath>
</defs>
</svg>
