<svg width="50" height="50" viewBox="0 0 50 50" fill="none" xmlns="http://www.w3.org/2000/svg">
<path d="M38.1111 40.299L10.8889 40.299L10.8889 19.949L38.1111 19.949M32.2778 6.99903L32.2778 10.699L16.7222 10.699L16.7222 6.99903L12.8333 6.99902L12.8333 10.699L10.8889 10.699C8.73056 10.699 7 12.3455 7 14.399L6.99999 40.299C6.99999 41.2803 7.40971 42.2214 8.13902 42.9153C8.86833 43.6092 9.85749 43.999 10.8889 43.999L38.1111 43.999C39.1425 43.999 40.1317 43.6092 40.861 42.9153C41.5903 42.2214 42 41.2803 42 40.299L42 14.399C42 13.4177 41.5903 12.4766 40.861 11.7827C40.1317 11.0888 39.1425 10.699 38.1111 10.699L36.1667 10.699L36.1667 6.99903M34.2222 27.349L24.5 27.349L24.5 36.599L34.2222 36.599L34.2222 27.349Z" fill="white"/>
</svg>
