<svg width="50" height="50" viewBox="0 0 50 50" fill="none" xmlns="http://www.w3.org/2000/svg">
<g clip-path="url(#clip0_1034_735)">
<path fill-rule="evenodd" clip-rule="evenodd" d="M11.7943 13.558C11.7939 13.6873 11.7573 13.8139 11.6887 13.9235C11.6201 14.0331 11.5221 14.1213 11.4059 14.1781C11.2898 14.2348 11.16 14.258 11.0314 14.2448C10.9028 14.2316 10.7804 14.1827 10.6781 14.1036L6.26611 10.6722C6.18322 10.6075 6.11618 10.5247 6.07007 10.4302C6.02396 10.3356 6 10.2318 6 10.1266C6 10.0215 6.02396 9.91767 6.07007 9.82314C6.11618 9.72861 6.18322 9.64582 6.26611 9.58106L10.6781 6.14693C10.7807 6.0675 10.9036 6.01852 11.0328 6.00557C11.1619 5.99262 11.2921 6.01622 11.4084 6.07368C11.5248 6.13114 11.6227 6.22014 11.6909 6.33054C11.7591 6.44093 11.7949 6.56828 11.7943 6.69805V8.74745H28.412V6.69251C28.4119 6.56273 28.4484 6.43555 28.5172 6.32549C28.5859 6.21542 28.6842 6.1269 28.8009 6.07001C28.9176 6.01313 29.0479 5.99018 29.1769 6.00378C29.306 6.01738 29.4287 6.06698 29.5309 6.14693L33.9401 9.57829C34.023 9.64305 34.0901 9.72584 34.1362 9.82037C34.1823 9.9149 34.2062 10.0187 34.2062 10.1239C34.2062 10.2291 34.1823 10.3329 34.1362 10.4274C34.0901 10.5219 34.023 10.6047 33.9401 10.6695L29.5309 14.1036C29.4285 14.1837 29.3056 14.2333 29.1762 14.2468C29.0469 14.2603 28.9164 14.2371 28.7996 14.1799C28.6829 14.1227 28.5846 14.0338 28.516 13.9233C28.4475 13.8128 28.4114 13.6853 28.412 13.5552V11.5114H11.7943V13.558ZM29.7968 19.8198H10.4095C10.0422 19.8198 9.68995 19.9657 9.43025 20.2254C9.17055 20.485 9.02465 20.8373 9.02465 21.2045V40.5908C9.02465 40.958 9.17055 41.3102 9.43025 41.5699C9.68995 41.8296 10.0422 41.9755 10.4095 41.9755H29.7968C30.1641 41.9755 30.5163 41.8296 30.776 41.5699C31.0357 41.3102 31.1816 40.958 31.1816 40.5908V21.2045C31.1816 20.8373 31.0357 20.485 30.776 20.2254C30.5163 19.9657 30.1641 19.8198 29.7968 19.8198ZM10.4095 17.0503C9.30763 17.0503 8.25094 17.488 7.47183 18.267C6.69273 19.0461 6.25503 20.1027 6.25503 21.2045V40.5908C6.25503 41.6925 6.69273 42.7492 7.47183 43.5282C8.25094 44.3073 9.30763 44.745 10.4095 44.745H29.7968C30.8986 44.745 31.9553 44.3073 32.7344 43.5282C33.5135 42.7492 33.9512 41.6925 33.9512 40.5908V21.2045C33.9512 20.1027 33.5135 19.0461 32.7344 18.267C31.9553 17.488 30.8986 17.0503 29.7968 17.0503H10.4095ZM44.3068 22.5892H42.2601V39.206H44.3068C44.4361 39.2064 44.5627 39.243 44.6723 39.3116C44.7819 39.3802 44.8701 39.4782 44.9269 39.5943C44.9837 39.7105 45.0068 39.8402 44.9936 39.9689C44.9805 40.0975 44.9316 40.2199 44.8524 40.3221L41.4209 44.7339C41.3561 44.8168 41.2733 44.8838 41.1788 44.9299C41.0842 44.976 40.9804 45 40.8752 45C40.7701 45 40.6663 44.976 40.5717 44.9299C40.4772 44.8838 40.3944 44.8168 40.3296 44.7339L36.8953 40.3221C36.816 40.2197 36.7671 40.097 36.754 39.9682C36.741 39.8393 36.7643 39.7093 36.8215 39.5931C36.8786 39.4768 36.9672 39.3789 37.0772 39.3105C37.1872 39.2421 37.3141 39.2059 37.4437 39.206H39.4904V22.5892H37.4437C37.3144 22.5889 37.1878 22.5523 37.0782 22.4837C36.9686 22.415 36.8804 22.3171 36.8236 22.2009C36.7668 22.0848 36.7437 21.955 36.7569 21.8264C36.77 21.6978 36.8189 21.5754 36.8981 21.4731L40.3296 17.0614C40.3944 16.9785 40.4772 16.9115 40.5717 16.8654C40.6663 16.8193 40.7701 16.7953 40.8752 16.7953C40.9804 16.7953 41.0842 16.8193 41.1788 16.8654C41.2733 16.9115 41.3561 16.9785 41.4209 17.0614L44.8552 21.4731C44.9345 21.5756 44.9834 21.6982 44.9965 21.8271C45.0095 21.956 44.9862 22.0859 44.929 22.2022C44.8719 22.3184 44.7833 22.4163 44.6733 22.4848C44.5633 22.5532 44.4363 22.5894 44.3068 22.5892Z" fill="#F1F1F1"/>
</g>
<defs>
<clipPath id="clip0_1034_735">
<rect width="50" height="50" fill="white"/>
</clipPath>
</defs>
</svg>
