<svg width="50" height="50" viewBox="0 0 50 50" fill="none" xmlns="http://www.w3.org/2000/svg">
<path d="M25 24.575C23.7686 24.575 22.5877 24.0877 21.717 23.2204C20.8463 22.353 20.3571 21.1766 20.3571 19.95C20.3571 18.7234 20.8463 17.547 21.717 16.6796C22.5877 15.8123 23.7686 15.325 25 15.325C26.2314 15.325 27.4123 15.8123 28.283 16.6796C29.1537 17.547 29.6429 18.7234 29.6429 19.95C29.6429 20.5574 29.5228 21.1588 29.2894 21.7199C29.0561 22.281 28.7141 22.7909 28.283 23.2204C27.8519 23.6498 27.34 23.9905 26.7767 24.2229C26.2134 24.4554 25.6097 24.575 25 24.575ZM25 7C21.5522 7 18.2456 8.36437 15.8076 10.793C13.3696 13.2216 12 16.5154 12 19.95C12 29.6625 25 44 25 44C25 44 38 29.6625 38 19.95C38 16.5154 36.6304 13.2216 34.1924 10.793C31.7544 8.36437 28.4478 7 25 7Z" fill="#F1F1F1"/>
</svg>
