<svg width="58" height="60" viewBox="0 0 58 60" fill="none" xmlns="http://www.w3.org/2000/svg">
<path d="M19.3599 14.3962L12.5215 18.3209L11.6799 18.8027L4 14.3962L11.6799 9.98682L19.3599 14.3962Z" fill="#00ACBE"/>
<path d="M28.0596 9.40282H28.0625L21.2213 13.3275L20.3826 13.8092L12.7026 9.40282L20.3797 4.99341H20.3826L28.0625 9.40282H28.0596Z" fill="#00ACBE"/>
<path d="M36.7627 4.40934L29.0828 8.81583L21.4028 4.40934L29.0828 0L36.7627 4.40934Z" fill="#00ACBE"/>
<path d="M28.0625 19.3896L21.2213 23.3143L20.3826 23.7991L12.7026 19.3896L20.3826 14.9832L28.0596 19.3896H28.0625Z" fill="#00ACBE"/>
<path d="M29.9239 18.3211L29.0823 18.8029L21.4023 14.3964L29.0823 9.98999L36.7622 14.3964L29.9239 18.3211Z" fill="#00ACBE"/>
<path d="M45.4653 9.40259L40.8217 12.0686L37.7854 13.809L30.1055 9.40259L37.7854 4.99609L45.4653 9.40259Z" fill="#00ACBE"/>
<path d="M36.7627 24.3831L29.0828 28.7924L21.4028 24.3831L22.9078 23.5216L29.0828 19.9766L36.7627 24.3831Z" fill="#00ACBE"/>
<path d="M38.2971 14.6914H38.2937L38.2971 14.688V14.6914Z" fill="#00ACBE"/>
<path d="M45.4653 19.3894H45.4624L37.7854 23.7988L30.1055 19.3894L31.6105 18.5251L37.7825 14.9829H37.7854L45.4653 19.3894Z" fill="#00ACBE"/>
<path d="M38.2973 14.6882V14.6916H38.2939L38.2973 14.6882Z" fill="#00ACBE"/>
<path d="M54.165 14.3962L46.485 18.8056L38.8052 14.3962L46.485 9.98975L54.165 14.3962Z" fill="#00ACBE"/>
<path d="M26.3672 28.5615L26.3701 31.7854L29.1639 33.3973V30.1734L26.3672 28.5615Z" fill="#00ACBE"/>
<path d="M23.574 26.9495V30.1733L26.3707 31.7852L26.3678 28.5614L23.574 26.9495Z" fill="#00ACBE"/>
<path d="M20.78 25.3379V28.5617L23.5738 30.1736V26.9498L20.78 25.3379Z" fill="#00ACBE"/>
<path d="M26.3708 31.7854V35.0092L29.1646 36.6211V33.3973L26.3708 31.7854Z" fill="#00ACBE"/>
<path d="M26.3708 35.0093V38.2331L29.1675 39.845L29.1646 36.6212L26.3708 35.0093Z" fill="#00ACBE"/>
<path d="M26.3708 38.1892L26.3738 41.413L29.1675 43.0249V39.8011L26.3708 38.1892Z" fill="#00ACBE"/>
<path d="M26.3738 41.4131V44.6369L29.1675 46.2488V43.025L26.3738 41.4131Z" fill="#00ACBE"/>
<path d="M26.3738 44.6367V47.8605L29.1675 49.4725V46.2486L26.3738 44.6367Z" fill="#00ACBE"/>
<path d="M26.3738 47.8635V51.0874L29.1704 52.6993L29.1675 49.4725L26.3738 47.8635Z" fill="#00ACBE"/>
<path d="M26.3738 51.0554L26.3767 54.2792L29.1704 55.8912V52.6673L26.3738 51.0554Z" fill="#00ACBE"/>
<path d="M23.5798 49.4434V52.6672L26.3765 54.2791L26.3736 51.0553L23.5798 49.4434Z" fill="#007885"/>
<path d="M20.7859 47.8313V51.058L23.5797 52.667V49.4432L20.7859 47.8313Z" fill="#007885"/>
<path d="M26.3767 54.2788V57.5026L29.1704 59.1145V55.8907L26.3767 54.2788Z" fill="#00ACBE"/>
<path d="M23.5798 52.6672L23.5828 55.8911L26.3765 57.503V54.2791L23.5798 52.6672Z" fill="#00ACBE"/>
<path d="M20.7859 51.0554V54.2822L23.5826 55.8912L23.5797 52.6673L20.7859 51.0554Z" fill="#00ACBE"/>
<path d="M18.0244 23.749V26.9729L20.8211 28.5848L20.8182 25.3609L18.0244 23.749Z" fill="#00ACBE"/>
<path d="M15.2307 22.1372V25.361L18.0245 26.9729V23.7491L15.2307 22.1372Z" fill="#00ACBE"/>
<path d="M12.4365 20.5254V23.7492L15.2303 25.3611V22.1373L12.4365 20.5254Z" fill="#00ACBE"/>
<path d="M18.0303 46.2429L18.0332 49.4667L20.827 51.0787L20.8241 47.8548L18.0303 46.2429Z" fill="#007885"/>
<path d="M15.2361 44.6311V47.8549L18.0328 49.4668L18.0299 46.243L15.2361 44.6311Z" fill="#007885"/>
<path d="M12.4431 43.022V46.2458L15.2369 47.8548V44.631L12.4431 43.022Z" fill="#007885"/>
<path d="M18.033 49.4668V52.6906L20.8267 54.3025V51.0787L18.033 49.4668Z" fill="#00ACBE"/>
<path d="M15.2361 47.8547L15.239 51.0786L18.0328 52.6905V49.4666L15.2361 47.8547Z" fill="#00ACBE"/>
<path d="M12.4431 46.2458V49.4697L15.2398 51.0787L15.2369 47.8548L12.4431 46.2458Z" fill="#00ACBE"/>
<path d="M9.64038 18.9163L9.64331 22.1401L12.437 23.752V20.5253L9.64038 18.9163Z" fill="#00ACBE"/>
<path d="M6.84644 17.3047V20.5285L9.64314 22.1404L9.64022 18.9166L6.84644 17.3047Z" fill="#00ACBE"/>
<path d="M4.05273 15.6926V18.9164L6.84652 20.5283V17.3045L4.05273 15.6926Z" fill="#00ACBE"/>
<path d="M6.84937 20.5281V23.7519L9.64315 25.3638V22.14L6.84937 20.5281Z" fill="#007885"/>
<path d="M4.05273 18.9163V22.1401L6.84944 23.752L6.84652 20.5282L4.05273 18.9163Z" fill="#00ACBE"/>
<path d="M6.84937 23.7522V26.976L9.64315 28.5879V25.3641L6.84937 23.7522Z" fill="#007885"/>
<path d="M4.05273 22.1401L4.05566 25.364L6.84944 26.9759V23.7521L4.05273 22.1401Z" fill="#00ACBE"/>
<path d="M6.84937 26.9321V30.1559L9.64607 31.7678L9.64315 28.544L6.84937 26.9321Z" fill="#007885"/>
<path d="M4.05566 25.3201V28.5467L6.84945 30.1557V26.932L4.05566 25.3201Z" fill="#00ACBE"/>
<path d="M6.84937 30.156L6.85229 33.3798L9.64607 34.9917V31.7679L6.84937 30.156Z" fill="#007885"/>
<path d="M4.05566 28.5471V31.7709L6.85237 33.3799L6.84945 30.1561L4.05566 28.5471Z" fill="#00ACBE"/>
<path d="M6.85205 33.3799V36.6037L9.64583 38.2156V34.9918L6.85205 33.3799Z" fill="#007885"/>
<path d="M4.05566 31.7678L4.05859 34.9946L6.85237 36.6036V33.3797L4.05566 31.7678Z" fill="#00ACBE"/>
<path d="M6.85205 36.5745V39.7982L9.64583 41.4101V38.1863L6.85205 36.5745Z" fill="#007885"/>
<path d="M4.05811 34.9624V38.1862L6.85189 39.7981V36.5743L4.05811 34.9624Z" fill="#00ACBE"/>
<path d="M9.646 41.4102L9.64892 44.634L12.4426 46.2459V43.0221L9.646 41.4102Z" fill="#007885"/>
<path d="M6.85205 39.7981V43.0219L9.64876 44.6338L9.64583 41.41L6.85205 39.7981Z" fill="#007885"/>
<path d="M4.05811 38.1863V41.413L6.85189 43.022V39.7982L4.05811 38.1863Z" fill="#00ACBE"/>
<path d="M9.64893 44.634V47.8579L12.4426 49.4698V46.2459L9.64893 44.634Z" fill="#00ACBE"/>
<path d="M6.85205 43.022L6.85498 46.2458L9.64876 47.8577V44.6339L6.85205 43.022Z" fill="#00ACBE"/>
<path d="M4.05811 41.4102V44.634L6.85481 46.2459L6.85189 43.0221L4.05811 41.4102Z" fill="#00ACBE"/>
<path d="M31.9578 28.5583V31.7822L29.1641 33.3941V30.1703L31.9578 28.5583Z" fill="#00ACBE"/>
<path d="M34.752 26.9468V30.1706L31.9583 31.7825V28.5587L34.752 26.9468Z" fill="#00ACBE"/>
<path d="M37.5457 25.332V28.5587L34.752 30.1706V26.9468L37.5457 25.332Z" fill="#00ACBE"/>
<path d="M31.9578 31.7825V35.0063L29.1641 36.6211V33.3944L31.9578 31.7825Z" fill="#00ACBE"/>
<path d="M31.9578 35.0061L31.9607 38.2299L29.1669 39.8418L29.1641 36.618L31.9578 35.0061Z" fill="#00ACBE"/>
<path d="M31.9608 38.1863V41.4101L29.167 43.0249V39.8011L31.9608 38.1863Z" fill="#00ACBE"/>
<path d="M31.9608 41.4102V44.6369L29.167 46.2488V43.025L31.9608 41.4102Z" fill="#00ACBE"/>
<path d="M31.9608 44.634V47.8579L29.167 49.4727V46.2489L31.9608 44.634Z" fill="#00ACBE"/>
<path d="M31.9608 47.8606L31.9637 51.0844L29.1699 52.6963L29.167 49.4725L31.9608 47.8606Z" fill="#00ACBE"/>
<path d="M31.9637 51.0522V54.2761L29.1699 55.8909V52.6671L31.9637 51.0522Z" fill="#00ACBE"/>
<path d="M34.7577 49.4404V52.6643L31.9639 54.2762V51.0523L34.7577 49.4404Z" fill="#007885"/>
<path d="M37.5516 47.8284V51.0522L34.7578 52.6641V49.4403L37.5516 47.8284Z" fill="#007885"/>
<path d="M31.9637 54.2761V57.4999L29.1699 59.1148V55.891L31.9637 54.2761Z" fill="#00ACBE"/>
<path d="M34.7577 52.6643V55.8881L31.9639 57.5V54.2762L34.7577 52.6643Z" fill="#00ACBE"/>
<path d="M37.5516 51.0522V54.2761L34.7578 55.888V52.6642L37.5516 51.0522Z" fill="#00ACBE"/>
<path d="M40.2987 23.7434V26.9672L37.5049 28.5791V25.3553L40.2987 23.7434Z" fill="#00ACBE"/>
<path d="M43.0921 22.1284V25.3522L40.2983 26.9671V23.7433L43.0921 22.1284Z" fill="#00ACBE"/>
<path d="M45.8861 20.5166V23.7404L43.0923 25.3523V22.1285L45.8861 20.5166Z" fill="#00ACBE"/>
<path d="M40.3045 46.2371V49.4609L37.5107 51.0728V47.849L40.3045 46.2371Z" fill="#007885"/>
<path d="M43.0985 44.6252V47.8491L40.3047 49.461V46.2372L43.0985 44.6252Z" fill="#007885"/>
<path d="M45.8917 43.0103V46.2341L43.0979 47.8489V44.6251L45.8917 43.0103Z" fill="#007885"/>
<path d="M40.3045 49.4607L40.3075 52.6845L37.5137 54.2964L37.5107 51.0726L40.3045 49.4607Z" fill="#00ACBE"/>
<path d="M43.0985 47.8489L43.1014 51.0727L40.3076 52.6846L40.3047 49.4608L43.0985 47.8489Z" fill="#00ACBE"/>
<path d="M45.8917 46.2341L45.8946 49.458L43.1008 51.0728L43.0979 47.849L45.8917 46.2341Z" fill="#00ACBE"/>
<path d="M48.6799 18.9045V22.1283L45.8862 23.7402V20.5164L48.6799 18.9045Z" fill="#00ACBE"/>
<path d="M51.474 17.293V20.5167L48.6802 22.1286V18.9049L51.474 17.293Z" fill="#00ACBE"/>
<path d="M54.2672 15.678V18.9018L51.4734 20.5166V17.2928L54.2672 15.678Z" fill="#00ACBE"/>
<path d="M51.4852 20.5166V23.7638L48.6738 25.3874V22.1402L51.4852 20.5166Z" fill="#007885"/>
<path d="M54.2672 18.9019V22.1285L51.4734 23.7404V20.5166L54.2672 18.9019Z" fill="#00ACBE"/>
<path d="M51.482 23.7551V26.9936L48.6765 28.6143V25.3758L51.482 23.7551Z" fill="#007885"/>
<path d="M54.2672 22.1257L54.2701 25.3496L51.4763 26.9644L51.4734 23.7406L54.2672 22.1257Z" fill="#00ACBE"/>
<path d="M51.482 26.9495V30.1908L48.6765 31.8086V28.5701L51.482 26.9495Z" fill="#007885"/>
<path d="M54.2701 25.3086V28.5324L51.4763 30.1443V26.9205L54.2701 25.3086Z" fill="#00ACBE"/>
<path d="M51.4769 30.1443V33.368L48.6831 34.98V31.7562L51.4769 30.1443Z" fill="#007885"/>
<path d="M54.2701 28.5322V31.7561L51.4763 33.3679V30.1441L54.2701 28.5322Z" fill="#00ACBE"/>
<path d="M51.4769 33.3682V36.592L48.6831 38.2039V34.9801L51.4769 33.3682Z" fill="#007885"/>
<path d="M54.2701 31.7563L54.273 34.9801L51.4792 36.592L51.4763 33.3682L54.2701 31.7563Z" fill="#00ACBE"/>
<path d="M51.4796 36.5625V39.7863L48.6858 41.3982V38.1744L51.4796 36.5625Z" fill="#007885"/>
<path d="M54.273 34.9507V38.1745L51.4792 39.7864V36.5626L54.273 34.9507Z" fill="#00ACBE"/>
<path d="M48.6856 41.3984V44.6223L45.8918 46.2371V43.0104L48.6856 41.3984Z" fill="#007885"/>
<path d="M51.4796 39.7866V43.0104L48.6858 44.6223V41.3985L51.4796 39.7866Z" fill="#007885"/>
<path d="M54.273 38.1746V41.3983L51.4792 43.0102V39.7865L54.273 38.1746Z" fill="#00ACBE"/>
<path d="M48.6856 44.6223L48.6885 47.8461L45.8948 49.461L45.8918 46.2342L48.6856 44.6223Z" fill="#00ACBE"/>
<path d="M51.4796 43.0103L51.4825 46.2341L48.6887 47.846L48.6858 44.6222L51.4796 43.0103Z" fill="#00ACBE"/>
<path d="M54.273 41.3984L54.276 44.6223L51.4822 46.2342L51.4792 43.0104L54.273 41.3984Z" fill="#00ACBE"/>
</svg>
