<svg width="390" height="844" viewBox="0 0 390 844" fill="none" xmlns="http://www.w3.org/2000/svg">
<g clip-path="url(#clip0_761_2772)">
<path d="M388.625 181.022C357.46 198.7 38.5561 397.041 -117 494.001L834.463 540C871.345 476.713 930.177 328.041 870.443 239.649C795.776 129.16 427.582 158.924 388.625 181.022Z" fill="#CCD1D4"/>
<path d="M-46.9413 406.793C-60.8263 397.649 -65.2967 410.624 -65.7962 418.254C54.6692 461.281 171.171 425.764 221.121 420.607C261.081 416.481 409.684 371.198 478.99 349.072L165.225 409.862C157.216 386.265 130.636 393.62 118.347 400.248C81.3489 309.613 11.0989 391.644 19.7135 417.097C20.4321 419.221 16.7333 416.853 15.7032 415.409C8.33467 401.878 -5.87991 408.564 -12.0661 413.598C-23.8905 391.643 -43.1881 412.436 -43.6539 411.088C-44.0265 410.009 -46.0008 407.776 -46.9413 406.793Z" fill="#F9EEDC"/>
<path d="M-241.058 386.753L-261 732.707L295.185 768L829 688.169V377.652C486.928 235.316 324.281 439.901 104.532 482.856C-71.2671 517.221 -199.111 433.106 -241.058 386.753Z" fill="#E2D7D1"/>
<path d="M224.099 495.89C725.616 384.814 840.894 496.875 835.843 566.79V665.262L-161.892 768L-381.693 630.796C-388.728 632.11 -277.418 606.967 224.099 495.89Z" fill="#EFE8DE"/>
<path d="M396.397 189.035C410.517 189.035 471.349 199.339 500 204.491L249.242 205.263C238.561 205.971 215.398 207.659 208.184 208.741C200.97 209.823 197.12 207.259 196.097 205.843C190.533 196.956 207.608 180.534 214.323 178.988C221.038 177.443 228.905 186.909 230.631 184.784C232.358 182.659 244.061 178.795 261.52 188.841C275.488 196.878 291.77 180.341 298.165 171.068C320.613 148.657 342.037 165.272 351.502 177.25C365.162 174.004 374.973 181.436 378.17 185.557C378.362 186.717 382.276 189.035 396.397 189.035Z" fill="#F6E9D9"/>
</g>
<defs>
<clipPath id="clip0_761_2772">
<rect width="390" height="844" fill="white"/>
</clipPath>
</defs>
</svg>
