<svg width="1920" height="858" viewBox="0 0 1920 858" fill="none" xmlns="http://www.w3.org/2000/svg">
<g clip-path="url(#clip0_643_227)">
<path d="M2569 555C1515.04 546.239 -625.108 528.717 -754 528.717L-592.885 75.5535L282.699 -90.3041L2361.85 -190L2569 555Z" fill="#B2D1E5"/>
<path d="M796.935 62.0822C865.849 89.9023 1571.03 402.027 1915 554.612L-188.925 627C-270.482 527.406 -400.574 293.443 -268.488 154.343C-103.38 -19.533 710.792 27.307 796.935 62.0822Z" fill="#CCD1D4"/>
<path d="M2187.92 362.958L2232 931.5L1002.5 989.5L-177.551 858.307V348.002C578.633 114.087 938.18 450.302 1423.96 520.895C1812.58 577.37 2095.19 439.135 2187.92 362.958Z" fill="#E2D7D1"/>
<path d="M1159.91 652.514C51.0598 573.124 -203.82 653.218 -192.654 703.189V773.57L2013.34 847L2499.32 748.936C2514.88 749.875 2268.77 731.904 1159.91 652.514Z" fill="#EFE8DE"/>
<path d="M184.987 457.844C140.956 457.844 -48.7282 489.751 -138.066 505.704L643.842 508.096C677.145 510.289 749.373 515.514 771.867 518.864C794.361 522.215 806.366 514.278 809.557 509.891C826.906 482.371 773.662 431.52 752.723 426.734C731.784 421.948 707.256 451.262 701.872 444.682C696.488 438.101 659.995 426.136 605.554 457.245C562.002 482.132 511.231 430.923 491.289 402.208C421.294 332.81 354.49 384.26 324.977 421.351C282.381 411.301 251.791 434.313 241.82 447.076C241.222 450.665 229.018 457.844 184.987 457.844Z" fill="#F6E9D9"/>
<path d="M1963.57 426.137C1998.99 391.678 2019.41 426.934 2025.19 448.87C1697.35 642.104 1336.61 604.414 1187.65 617.575C1068.48 628.104 608.346 580.085 393.177 554.759H1344.99C1355.04 481.534 1436.92 487.956 1476.6 500.32C1533.44 215.555 1785.3 414.769 1774.53 493.739C1773.63 500.327 1783.1 491.346 1785.3 486.56C1799.18 443.008 1844.52 454.454 1865.46 465.622C1887.6 395.029 1955.8 444.683 1956.4 440.495C1956.87 437.145 1961.38 429.527 1963.57 426.137Z" fill="#F9EEDC"/>
</g>
<defs>
<clipPath id="clip0_643_227">
<rect width="1920" height="858" fill="white"/>
</clipPath>
</defs>
</svg>
