<svg width="1920" height="858" viewBox="0 0 1920 858" fill="none" xmlns="http://www.w3.org/2000/svg">
<g clip-path="url(#clip0_691_4)">
<path d="M-754 555C299.962 546.239 2440.11 528.717 2569 528.717L2407.88 75.5535L1532.3 -90.3041L-546.852 -190L-754 555Z" fill="#B2D1E5"/>
<path d="M1018.07 62.0822C949.151 89.9023 243.974 402.027 -100 554.612L2003.93 627C2085.48 527.406 2215.57 293.443 2083.49 154.343C1918.38 -19.533 1104.21 27.307 1018.07 62.0822Z" fill="#CCD1D4"/>
<path d="M-372.917 362.958L-417 931.5L812.5 989.5L1992.55 858.307V348.002C1236.37 114.087 876.82 450.302 391.044 520.895C2.42297 577.37 -280.189 439.135 -372.917 362.958Z" fill="#E2D7D1"/>
<path d="M655.086 652.514C1763.94 573.124 2018.82 653.218 2007.65 703.189V773.57L-198.341 847L-684.322 748.936C-699.875 749.875 -453.769 731.904 655.086 652.514Z" fill="#EFE8DE"/>
<path d="M1630.01 457.844C1674.04 457.844 1863.73 489.751 1953.07 505.704L1171.16 508.096C1137.86 510.289 1065.63 515.514 1043.13 518.864C1020.64 522.215 1008.63 514.278 1005.44 509.891C988.095 482.371 1041.34 431.52 1062.28 426.734C1083.22 421.948 1107.74 451.262 1113.13 444.682C1118.51 438.101 1155.01 426.136 1209.45 457.245C1253 482.132 1303.77 430.923 1323.71 402.208C1393.71 332.81 1460.51 384.26 1490.02 421.351C1532.62 411.301 1563.21 434.313 1573.18 447.076C1573.78 450.665 1585.98 457.844 1630.01 457.844Z" fill="#F6E9D9"/>
<path d="M-148.574 426.137C-183.991 391.678 -204.411 426.934 -210.194 448.87C117.645 642.104 478.388 604.414 627.352 617.575C746.522 628.104 1206.65 580.085 1421.82 554.759H470.013C459.962 481.534 378.082 487.956 338.398 500.32C281.565 215.555 29.703 414.769 40.4714 493.739C41.3699 500.327 31.8966 491.346 29.703 486.56C15.8237 443.008 -29.5234 454.454 -50.462 465.622C-72.5972 395.029 -140.797 444.683 -141.396 440.495C-141.874 437.145 -146.381 429.527 -148.574 426.137Z" fill="#F9EEDC"/>
</g>
<defs>
<clipPath id="clip0_691_4">
<rect width="1920" height="858" fill="white"/>
</clipPath>
</defs>
</svg>
