<svg width="1920" height="279" viewBox="0 0 1920 279" fill="none" xmlns="http://www.w3.org/2000/svg">
<g clip-path="url(#clip0_643_225)">
<path d="M-18 50.5009V315.5L379.5 343.5L1414.5 375C1617 356.334 2021.8 316.6 2021 307C2020.2 297.4 2012.67 127.667 2009 44.0004L1519.5 32.0004C962.5 -1.00006 446 -5.99932 -18 50.5009Z" fill="#20514D"/>
<path d="M1316.5 211C560 225 31 149 -29.5 143.5L9.5 314C527.333 318.167 1569.1 326.5 1593.5 326.5C1617.9 326.5 1887.67 270.833 2019.5 243C2037.33 227.667 1921.7 199.8 1316.5 211Z" fill="#2F6861"/>
<path d="M123 127.814C128.023 138.279 138.068 160.463 138.068 165.486C153.137 167.857 182.186 171.764 177.832 168.415C173.479 165.067 176.019 134.651 177.832 119.862C174.344 135.07 166.113 164.816 161.09 162.137C154.811 158.789 150.626 107.723 150.626 119.862C150.626 132 146.44 165.486 143.928 156.277C141.919 148.91 129.139 134.233 123 127.814Z" fill="#2F6861"/>
<path d="M0 272.876V234.411L11.5265 222.163C11.3893 227.458 14.5728 238.047 28.4046 238.047C42.2365 238.047 66.8264 227.458 77.3923 222.163C78.3529 228.096 81.4266 240.037 86.0372 240.343C90.6478 240.65 103.053 234.985 108.679 232.114C108.541 234.347 109.09 239.119 112.384 240.343C115.677 241.568 125.831 235.368 130.497 232.114C129.948 234.092 130.661 238.277 137.907 239.195C145.152 240.114 156.843 229.499 161.783 224.077C161.234 228.734 161.371 238.277 166.311 239.195C171.104 240.086 176.543 235.645 178.868 233.108C178.934 233.027 179.003 232.951 179.073 232.88C179.007 232.954 178.939 233.03 178.868 233.108C177.627 234.607 177.135 237.597 184.013 239.195C191.258 240.879 199.656 236.835 202.949 234.602C202.4 235.75 202.702 238.506 208.301 240.343C213.899 242.181 218.318 239.068 219.827 237.281C219.004 239.195 219.004 243.099 225.59 243.405C232.001 243.703 240.231 237.983 243.829 234.854C243.54 234.474 243.769 234.468 244.115 234.602C244.023 234.684 243.928 234.768 243.829 234.854C244.228 235.38 245.617 236.62 249.055 239.195C256.465 244.745 277.871 222.546 279.106 218.527C280.341 214.508 277.871 234.602 286.105 240.343C292.691 244.936 296.533 240.216 297.631 237.281C297.357 239.897 297.96 244.783 302.571 243.405C307.182 242.027 315.744 237.473 319.449 235.368C318.214 238.047 316.979 243.405 321.919 243.405C326.859 243.405 340.169 237.537 346.207 234.602C345.384 237.409 345.384 242.754 351.97 241.683C358.557 240.611 365.418 236.516 368.025 234.602C367.065 238.94 366.461 247.73 371.73 248.189C378.317 248.764 419.483 240.917 422.365 236.899C424.67 233.684 425.521 232.369 425.658 232.114C425.795 236.962 427.469 247.079 433.068 248.764C440.066 250.869 453.239 236.133 454.062 234.602C454.886 233.071 448.299 251.825 460.237 253.165C469.788 254.237 618.161 270.771 789 279H2.88163L0 272.876Z" fill="#22504E"/>
</g>
<defs>
<clipPath id="clip0_643_225">
<rect width="1921" height="279" fill="white"/>
</clipPath>
</defs>
</svg>
