<svg width="1920" height="280" viewBox="0 0 1920 280" fill="none" xmlns="http://www.w3.org/2000/svg">
<path d="M-14.5 0.5V316L383 344L1418 375.5C1620.5 356.833 2025.3 317.1 2024.5 307.5C2023.7 297.9 2016.17 128.167 2012.5 44.5L1523 32.5L383 0.5H-14.5Z" fill="#20514D"/>
<path d="M1316.5 212C560 226 31 150 -29.5 144.5L9.5 315C527.333 319.167 1569.1 327.5 1593.5 327.5C1617.9 327.5 1887.67 271.833 2019.5 244C2037.33 228.667 1921.7 200.8 1316.5 212Z" fill="#2F6861"/>
<path d="M566 266L938 206.5L934.5 200.5L477.5 208.5L212.5 217.5L122 222.5L131.5 240L566 266Z" fill="#153331"/>
<path d="M957 257.5L1014 247.5H1208L1533 219L1478 253.5L1186 282.5L957 257.5Z" fill="#153331"/>
<path d="M1422.5 275.5L1446 266L1432 259.5L1735 263.5L1917 222L1943 236.5L1753 310L1422.5 275.5Z" fill="#153331"/>
</svg>
