<svg width="390" height="565" viewBox="0 0 390 565" fill="none" xmlns="http://www.w3.org/2000/svg">
<path d="M542 385C293.972 379.908 -209.668 369.724 -240 369.724L-202.085 106.342L-26.5 -35.5L493.252 -48L542 385Z" fill="#B2D1E5"/>
<path d="M-145 28C-119.003 36.8461 269 101.5 350.5 250.5C-31.4586 297.425 -179.263 257.684 -423.5 167.5C-454.266 135.832 -758.863 24.712 -524.682 8.85598C-290.5 -7.00001 -177.496 16.9423 -145 28Z" fill="#CCD1D4"/>
<path d="M401.882 565L-26.6403 558.63L-26.6403 333.546C-26.6403 333.546 -86.6411 265.5 97.4995 265.5C237.986 265.5 377.258 201.407 410.5 177L401.882 565Z" fill="#E2D7D1"/>
<path d="M128.872 338.793C-194.767 308.489 -269.158 339.061 -265.899 358.135V385L519.802 375.597C524.342 375.956 452.511 369.096 128.872 338.793Z" fill="#EFE8DE"/>
<path d="M339.375 204.912C352.734 191.914 360.437 205.213 362.618 213.488C238.953 286.378 102.876 272.161 46.6852 277.125C1.73245 281.097 -171.835 262.984 -253 253.43H106.036C109.827 225.809 140.713 228.231 155.682 232.895C177.121 125.478 272.126 200.624 268.064 230.413C267.725 232.898 271.299 229.51 272.126 227.705C277.362 211.276 294.467 215.594 302.365 219.807C310.715 193.178 336.441 211.908 336.667 210.329C336.847 209.065 338.547 206.191 339.375 204.912Z" fill="#F9EEDC"/>
<path d="M338.825 466.85C23.4207 410.352 -49.0778 467.351 -45.9015 502.913V553L719.807 535.469C724.231 536.137 654.229 523.349 338.825 466.85Z" fill="#EFE8DE"/>
</svg>
