<svg width="1920" height="518" viewBox="0 0 1920 518" fill="none" xmlns="http://www.w3.org/2000/svg">
<g clip-path="url(#clip0_515_2)">
<path d="M2277.5 264C1728 259.167 612.2 249.5 545 249.5L629 -0.5L1085.5 -92L2169.5 -147L2277.5 264Z" fill="#B2D1E5"/>
<path d="M796.5 -73.9994C854.1 -54.3994 1443.5 165.501 1731 273.001L-27.5004 324C-95.6671 253.834 -204.4 89.0006 -94.0004 -8.9994C43.9996 -131.499 724.5 -98.4994 796.5 -73.9994Z" fill="#CCD1D4"/>
<path d="M1995.5 374.697L-18 517.697V91.1974C614 -104.303 914.5 176.697 1320.5 235.697C1645.3 282.897 1881.5 167.364 1959 103.697L1995.5 374.697Z" fill="#E2D7D1"/>
<path d="M1099.5 370.5C172.7 314.1 -40.333 371 -30.9996 406.5V456.5L2219 439C2232 439.667 2026.3 426.9 1099.5 370.5Z" fill="#EFE8DE"/>
<path d="M285 183.001C248.2 183.001 89.6667 209.668 15 223.001L668.5 225C696.333 226.833 756.7 231.2 775.5 234C794.3 236.8 804.333 230.167 807 226.5C821.5 203.5 777 161 759.5 157C742 153 721.5 177.5 717 172C712.5 166.5 682 156.5 636.5 182.5C600.1 203.3 557.667 160.501 541 136.501C482.5 78.5005 426.667 121.501 402 152.501C366.4 144.101 340.833 163.334 332.5 174.001C332 177.001 321.8 183.001 285 183.001Z" fill="#F6E9D9"/>
<path d="M1771.5 156.5C1801.1 127.7 1819.67 161.167 1824.5 179.5C1550.5 341 1246 316.5 1123 316.5C1023.01 316.5 638.833 285.167 459 264H1254.5C1262.9 202.8 1331.33 208.167 1364.5 218.501C1412 -19.4987 1622.5 147 1613.5 213.001C1612.75 218.507 1620.67 211.001 1622.5 207.001C1634.1 170.601 1672 180.168 1689.5 189.501C1708 130.501 1765 172.001 1765.5 168.501C1765.9 165.701 1769.67 159.334 1771.5 156.5Z" fill="#F9EEDC"/>
</g>
<defs>
<clipPath id="clip0_515_2">
<rect width="1920" height="518" fill="white"/>
</clipPath>
</defs>
</svg>
