<svg width="1920" height="716" viewBox="0 0 1920 716" fill="none" xmlns="http://www.w3.org/2000/svg">
<g clip-path="url(#clip0_335_150)">
<path d="M1181 116L1927.5 118.5V18.5L1300 51L1181 116Z" fill="#204848"/>
<path d="M-47 355L3 616L195 773L1960.5 787.5L1976 59.5L-25 116L-47 355Z" fill="#20514D"/>
<path d="M1934.5 128C1935.3 147.2 1919.17 155.667 1911 157.5L1861.5 172.5L-2.5 180.5V134L1920 96C1924.5 98.6667 1933.7 108.8 1934.5 128Z" fill="#1A6D7B"/>
<path d="M-0.500977 398.5L-11.501 441C6.66569 472.333 74.9996 587.2 143 628C228 679 997 690.5 1210 646C1380.4 610.4 1765 608.167 1936 611.5V319C1936 319 1080 683.5 945.999 656C811.999 628.5 210.999 474.5 210.999 474.5L218.999 434L192.499 467L183.999 398.5L173.999 460.5L152.499 418L158.499 460.5L-0.500977 398.5Z" fill="#2F6861"/>
<path d="M783.5 610.5C964.027 626.962 1024 613.166 1121 622.5V680.5L-18 629.5V447C296.5 552.5 301 566.5 783.5 610.5Z" fill="#285A57"/>
<path d="M-0.5 671V570.5L13.5 538.5C13.3333 552.334 17.2 580 34 580C50.8 580 80.6667 552.334 93.5 538.5C94.6667 554 98.4 585.2 104 586C109.6 586.8 124.667 572 131.5 564.5C131.333 570.334 132 582.8 136 586C140 589.2 152.333 573 158 564.5C157.333 569.667 158.2 580.6 167 583C175.8 585.4 190 557.667 196 543.5C195.333 555.667 195.5 580.6 201.5 583C207.322 585.329 213.928 573.724 216.751 567.095C216.832 566.885 216.915 566.687 217 566.5C216.921 566.694 216.838 566.892 216.751 567.095C215.244 571.014 214.647 578.824 223 583C231.8 587.4 242 576.834 246 571C245.333 574 245.7 581.2 252.5 586C259.3 590.8 264.667 582.667 266.5 578C265.5 583 265.5 593.2 273.5 594C281.286 594.779 291.282 579.834 295.652 571.659C295.301 570.665 295.58 570.65 296 571C295.888 571.215 295.773 571.434 295.652 571.659C296.137 573.032 297.824 576.272 302 583C311 597.5 337 539.5 338.5 529C340 518.5 337 571 347 586C355 598 359.667 585.667 361 578C360.667 584.834 361.4 597.601 367 594C372.6 590.4 383 578.5 387.5 573C386 580 384.5 594 390.5 594C396.5 594 412.667 578.667 420 571C419 578.333 419 592.3 427 589.5C435 586.7 443.333 576 446.5 571C445.333 582.334 444.6 605.3 451 606.5C459 608 509 587.5 512.5 577C515.3 568.6 516.333 565.167 516.5 564.5C516.667 577.167 518.7 603.6 525.5 608C534 613.5 550 575.001 551 571C552 567 544 616 558.5 619.5C570.1 622.3 751 637.5 958.5 659L3 687L-0.5 671Z" fill="#22504E"/>
<path d="M0 235V294L1823 181L0 235Z" fill="#1C6E68" fill-opacity="0.5"/>
<path d="M1920 148.499V173.499C1920.33 174.666 1917.1 177.2 1901.5 178C1882 179 41.4996 241 13.4996 241C-8.90044 241 -7.83377 236.667 -4.50044 234.5V173.5C294.5 174.667 948.9 127.799 1174.5 124.999C1456.5 121.499 1639 119.499 1665 131.999C1691 144.499 1597 135.999 1607 144.999C1615 152.199 1819 150.332 1920 148.499Z" fill="#357783"/>
<path d="M0 145.5H6.5C245.5 142.333 781.5 114 993.5 114C1205.5 114 1290.33 66.5 1300 51L0 97.5V145.5Z" fill="#6BC1B4"/>
<path d="M1510.5 49.5L1775 38C1714.17 48.5 1608.5 71 1545.5 84C1497.33 93.94 1426 100.5 1422 81.5C1418.8 66.3 1479.67 53.8333 1510.5 49.5Z" fill="#2B5956"/>
<path d="M1049.73 656.837L1071.22 554.813L1090.22 634.856C1092.38 623.796 1100.81 600.931 1117.21 597.945C1113.21 606.101 1106.41 624.156 1111.21 631.123C1117.21 639.833 1134.7 625.317 1136.2 621.585C1135.37 624.073 1136 630.211 1145.2 634.856C1154.4 639.501 1172.36 614.949 1180.19 602.092C1180.36 612.46 1182.69 633.529 1190.69 634.856C1200.69 636.515 1230.18 567.669 1229.18 554.813C1228.18 541.956 1240.68 623.658 1245.68 627.391C1250.67 631.123 1273.17 595.041 1274.17 579.696C1275.17 564.351 1278.17 608.313 1284.17 621.585C1290.16 634.856 1318.16 605.41 1320.16 597.945C1322.16 590.479 1318.16 602.506 1327.65 616.193C1337.15 629.879 1379.64 591.309 1380.64 570.572C1381.64 549.836 1384.64 590.064 1395.64 608.727C1406.63 627.391 1443.12 536.979 1442.62 514.169C1442.12 491.358 1450.12 581.77 1460.12 592.138C1470.12 602.506 1501.11 563.522 1502.61 552.325C1504.11 541.127 1502.61 608.728 1518.6 612.875C1530.79 616.034 1543.94 592.129 1549.77 578.019C1550.04 577.289 1550.32 576.602 1550.6 575.964C1550.34 576.621 1550.07 577.307 1549.77 578.019C1546 588.211 1543.67 606.683 1560.09 612.875C1577.69 619.511 1604.42 575.273 1615.58 552.325C1612.41 565.734 1607.98 594.793 1615.58 603.751C1624.69 614.496 1660.5 539.703 1662.94 528.873C1662.96 527.664 1663.01 527.25 1663.07 527.856C1663.09 528.074 1663.04 528.416 1662.94 528.873C1662.78 538.426 1664.48 597.62 1679.56 595.042C1696.56 592.138 1720 492 1721.55 478.917C1723.09 465.939 1724.55 584.674 1754.54 583.844C1778.54 583.181 1803.2 523.569 1812.53 493.847C1811.7 518.592 1812.53 568.913 1822.53 572.231C1832.52 575.549 1845.35 546.241 1850.52 531.173C1849.19 548.73 1849.62 583.844 1862.02 583.844C1874.41 583.844 1907.17 525.505 1922 496.335V728.999H1778.54L1764.54 643.565L1707.56 690.429C1703.39 683.794 1694.36 664.55 1691.56 640.662L1656.57 686.282L1645.07 647.297C1636.07 654.763 1618.18 671.352 1618.58 677.988C1619.08 686.282 1761.5 712.499 1766 712.499C1775 712.499 1777 732 1780.5 735.5L1518.6 721.12C1520.1 712.41 1521.4 693.747 1514.61 688.771C1507.81 683.794 1505.44 683.379 1505.11 683.794L1499.5 704.499C1497.17 697.311 1494 684.999 1488.61 682.964C1482.53 680.668 1454 679.499 1447.62 683.794C1443.17 686.792 1442.79 689.876 1442.62 690.429L1432.63 649.371L1402.64 682.964L1395.64 671.352C1378.47 681.858 1342.55 706.355 1336.15 720.29H-1V678.817L1049.73 656.837Z" fill="#244043"/>
</g>
<defs>
<clipPath id="clip0_335_150">
<rect width="1920" height="716" fill="white"/>
</clipPath>
</defs>
</svg>
