<svg width="3772" height="178" viewBox="0 0 3772 178" fill="none" xmlns="http://www.w3.org/2000/svg">
<g clip-path="url(#clip0_337_156)">
<path d="M0 27.721V181.111V446H1976V140.453L1957.83 145.381L1946.14 138.297L1965.53 131.829L1960.91 101.952L1947.98 111.192L1954.45 97.3315H1946.14C1941.31 101.952 1930.06 112.362 1923.66 117.044C1917.26 121.726 1906.62 117.968 1902.11 115.504L1928.89 88.7072C1924.48 85.1137 1915.29 77.434 1913.81 75.4627C1911.96 72.9986 1891.64 90.8633 1891.64 89.9392C1891.64 89.2 1897.8 74.8467 1900.88 67.7624L1895.95 66.2224C1884.56 83.163 1861.77 117.475 1861.77 119.2C1861.77 121.356 1854.08 119.2 1854.39 117.044C1854.63 115.319 1862.9 79.1588 1867.01 61.2942L1861.77 56.366L1836.53 111.192H1832.53L1849.46 58.8301L1839.3 50.2058L1814.98 98.8716L1804.2 37.8854C1805.02 37.372 1799.64 36.8997 1771.56 39.1174C1743.49 41.3351 1726.82 54.826 1722 61.2942C1725.79 70.5345 1732.71 90.6785 1730 97.3315C1727.29 103.985 1717.38 79.3642 1712.76 66.2224L1701.37 73.9227L1714.3 103.492C1713.48 105.134 1710.85 108.05 1706.91 106.572C1702.97 105.093 1703.01 91.7873 1703.52 85.3191L1693.36 86.5511C1694.9 97.0235 1697.98 118.215 1697.98 119.2C1697.98 120.186 1696.34 121.254 1695.52 121.664L1689.05 89.0152C1688.44 88.5018 1686.1 87.2903 1681.66 86.5511C1677.23 85.8119 1673.25 86.8591 1671.81 87.4751L1682.59 121.664L1677.66 128.133L1668.12 90.5553L1655.18 96.4075V136.449L1621.63 162.63L1624.09 98.8716H1610.54L1607.15 181.111L1603.15 125.669L1594.53 111.192L1591.76 162.63L1580.06 121.664C1575.13 122.178 1564.73 122.896 1562.51 121.664C1560.29 120.432 1560.97 144.149 1561.59 156.162L1515.71 148.153L1508.32 123.204L1493.55 165.094L1481.23 123.204H1473.23V148.153L1459.37 123.204L1451.06 125.669L1459.37 156.162C1448.08 156.983 1425.5 158.133 1425.5 156.162C1425.5 154.19 1420.78 129.878 1418.42 117.968L1379.01 162.63L1412.88 107.188L1393.48 71.1506L1356.85 170.022L1381.17 71.1506V47.4337L1348.22 148.153C1352.84 108.625 1361.59 29.0762 1359.62 27.105C1357.65 25.1337 1329.65 32.4438 1315.9 36.3453L1322.67 117.968L1295.58 58.8301L1284.18 87.4751C1301.53 119.919 1332.77 178.462 1318.98 153.081C1305.18 127.701 1274.02 107.393 1260.17 100.412L1221.07 137.065L1214.91 131.521C1226.4 116.223 1248.59 83.8406 1245.39 76.6948C1242.19 69.5489 1225.58 54.2099 1217.68 47.4337L1149.95 156.162L1199.21 38.8094L1177.96 27.105L1133.94 137.065L1149.95 24.9489L1129.01 21.5608L1121.31 97.3315C1114.44 110.268 1099.89 133.554 1096.68 123.204C1093.48 112.855 1108.9 42.9162 1117 9.24033L1096.68 0L1070.21 103.8L1055.43 110.884L1059.43 17.8646L1028.95 4.62017L1015.09 117.968L1012.94 9.24033H991.387V162.63L966.448 163.862L954.748 156.778L974.145 150.309L969.527 120.432L956.596 129.673L963.061 115.812H954.748C949.925 120.432 938.677 130.843 932.273 135.525C925.869 140.207 915.237 136.449 910.721 133.985L937.507 107.188C933.094 103.594 923.898 95.9146 922.421 93.9434C920.573 91.4793 900.253 109.344 900.253 108.42C900.253 107.681 906.411 93.3273 909.49 86.2431L904.563 84.703C893.172 101.644 870.388 135.956 870.388 137.681C870.388 139.837 862.691 137.681 862.999 135.525C863.245 133.8 871.517 97.6395 875.622 79.7749L870.388 74.8467L845.142 129.673H841.139L858.073 77.3108L847.913 68.6865L823.59 117.352L812.814 56.366C813.635 55.8527 808.257 55.3804 780.178 57.5981C752.099 59.8157 735.432 73.3066 730.609 79.7749C734.406 89.0152 741.323 109.159 738.614 115.812C735.904 122.465 725.991 97.8448 721.372 84.703L709.981 92.4033L722.912 121.972C722.091 123.615 719.464 126.531 715.523 125.052C711.582 123.574 711.623 110.268 712.136 103.8L701.976 105.032C703.515 115.504 706.594 136.695 706.594 137.681C706.594 138.667 704.952 139.734 704.131 140.145L697.665 107.496C697.049 106.983 694.71 105.771 690.276 105.032C685.843 104.293 681.861 105.34 680.424 105.956L691.2 140.145L686.274 146.613L676.729 109.036L663.798 114.888V154.93L630.239 181.111L632.702 117.352H619.155L615.768 199.591L611.766 144.149L603.145 129.673L600.374 181.111L588.674 140.145C583.748 140.658 573.342 141.377 571.125 140.145C568.908 138.913 569.586 162.63 570.201 174.642L524.327 166.634L516.937 141.685L502.159 183.575L489.844 141.685H481.839V166.634L467.984 141.685L459.671 144.149L467.984 174.642C456.695 175.464 434.117 176.614 434.117 174.642C434.117 172.671 429.396 148.359 427.035 136.449L387.626 181.111L421.493 125.669L402.097 89.6312L365.458 188.503L389.781 89.6312V65.9144L356.838 166.634C361.456 127.106 370.2 47.5569 368.229 45.5856C366.259 43.6144 338.262 50.9245 324.51 54.826L331.283 136.449L304.189 77.3108L292.798 105.956C310.142 138.4 341.382 196.942 327.589 171.562C313.795 146.182 282.638 125.874 268.783 118.892L229.682 155.546L223.524 150.001C235.018 134.704 257.206 102.321 254.004 95.1754C250.802 88.0296 234.197 72.6906 226.295 65.9144L158.56 174.642L207.822 57.2901L186.578 45.5856L142.55 155.546L158.56 43.4296L137.624 40.0414L129.927 115.812C123.051 128.749 108.498 152.034 105.296 141.685C102.094 131.336 117.509 61.3969 125.617 27.721L105.296 18.4807L78.8183 122.28L64.0399 129.365L68.0424 36.3453L37.5619 23.1008L23.7071 136.449L21.5519 27.721H0Z" fill="#1E1E1E"/>
<path d="M3772 27.721V181.111V445H1949V170.022L1987 90.5553C2004 98.8716 2005.6 90.1856 2010.42 96.6539C2006.62 105.894 1997.29 146.428 2000 153.081C2002.71 159.735 2054.62 79.3642 2059.24 66.2224L2070.63 73.9227L2057.7 103.492C2058.52 105.134 2061.15 108.05 2065.09 106.572C2069.03 105.093 2068.99 91.7873 2068.48 85.3191L2078.64 86.5511C2077.1 97.0235 2074.02 118.215 2074.02 119.2C2074.02 120.186 2075.66 121.254 2076.48 121.664L2082.95 89.0152C2083.56 88.5018 2085.9 87.2903 2090.34 86.5511C2094.77 85.8119 2098.75 86.8591 2100.19 87.4751L2089.41 121.664L2094.34 128.133L2103.88 90.5553L2116.82 96.4075V136.449L2150.37 162.63L2147.91 98.8716H2161.46L2164.85 181.111L2168.85 125.669L2177.47 111.192L2180.24 162.63L2191.94 121.664C2196.87 122.178 2207.27 122.896 2209.49 121.664C2211.71 120.432 2211.03 144.149 2210.41 156.162L2256.29 148.153L2263.68 123.204L2278.45 165.094L2290.77 123.204H2298.77V148.153L2312.63 123.204L2320.94 125.669L2312.63 156.162C2323.92 156.983 2346.5 158.133 2346.5 156.162C2346.5 154.19 2351.22 129.878 2353.58 117.968L2392.99 162.63L2359.12 107.188L2378.52 71.1506L2415.15 170.022L2390.83 71.1506V47.4337L2423.78 148.153C2419.16 108.625 2410.41 29.0762 2412.38 27.105C2414.35 25.1337 2442.35 32.4438 2456.1 36.3453L2449.33 117.968L2476.42 58.8301L2487.82 87.4751C2470.47 119.919 2439.23 178.462 2453.02 153.081C2466.82 127.701 2497.98 107.393 2511.83 100.412L2550.93 137.065L2557.09 131.521C2545.6 116.223 2523.41 83.8406 2526.61 76.6948C2529.81 69.5489 2546.42 54.2099 2554.32 47.4337L2622.05 156.162L2572.79 38.8094L2594.04 27.105L2638.06 137.065L2622.05 24.9489L2642.99 21.5608L2650.69 97.3315C2657.56 110.268 2672.11 133.554 2675.32 123.204C2678.52 112.855 2663.1 42.9162 2655 9.24033L2675.32 0L2701.79 103.8L2716.57 110.884L2712.57 17.8646L2743.05 4.62017L2756.91 117.968L2759.06 9.24033H2780.61V162.63L2805.55 163.862L2817.25 156.778L2797.85 150.309L2802.47 120.432L2815.4 129.673L2808.94 115.812H2817.25C2822.08 120.432 2833.32 130.843 2839.73 135.525C2846.13 140.207 2856.76 136.449 2861.28 133.985L2834.49 107.188C2838.91 103.594 2848.1 95.9146 2849.58 93.9434C2851.43 91.4793 2871.75 109.344 2871.75 108.42C2871.75 107.681 2865.59 93.3273 2862.51 86.2431L2867.44 84.703C2878.83 101.644 2901.61 135.956 2901.61 137.681C2901.61 139.837 2909.31 137.681 2909 135.525C2908.75 133.8 2900.48 97.6395 2896.38 79.7749L2901.61 74.8467L2926.86 129.673H2930.86L2913.93 77.3108L2924.09 68.6865L2948.41 117.352L2959.19 56.366C2958.36 55.8527 2963.74 55.3804 2991.82 57.5981C3019.9 59.8157 3036.57 73.3066 3041.39 79.7749C3037.59 89.0152 3030.68 109.159 3033.39 115.812C3036.1 122.465 3046.01 97.8448 3050.63 84.703L3062.02 92.4033L3049.09 121.972C3049.91 123.615 3052.54 126.531 3056.48 125.052C3060.42 123.574 3060.38 110.268 3059.86 103.8L3070.02 105.032C3068.48 115.504 3065.41 136.695 3065.41 137.681C3065.41 138.667 3067.05 139.734 3067.87 140.145L3074.33 107.496C3074.95 106.983 3077.29 105.771 3081.72 105.032C3086.16 104.293 3090.14 105.34 3091.58 105.956L3080.8 140.145L3085.73 146.613L3095.27 109.036L3108.2 114.888V154.93L3141.76 181.111L3139.3 117.352H3152.85L3156.23 199.591L3160.23 144.149L3168.86 129.673L3171.63 181.111L3183.33 140.145C3188.25 140.658 3198.66 141.377 3200.88 140.145C3203.09 138.913 3202.41 162.63 3201.8 174.642L3247.67 166.634L3255.06 141.685L3269.84 183.575L3282.16 141.685H3290.16V166.634L3304.02 141.685L3312.33 144.149L3304.02 174.642C3315.31 175.464 3337.88 176.614 3337.88 174.642C3337.88 172.671 3342.6 148.359 3344.96 136.449L3384.37 181.111L3350.51 125.669L3369.9 89.6312L3406.54 188.503L3382.22 89.6312V65.9144L3415.16 166.634C3410.54 127.106 3401.8 47.5569 3403.77 45.5856C3405.74 43.6144 3433.74 50.9245 3447.49 54.826L3440.72 136.449L3467.81 77.3108L3479.2 105.956C3461.86 138.4 3430.62 196.942 3444.41 171.562C3458.2 146.182 3489.36 125.874 3503.22 118.892L3542.32 155.546L3548.48 150.001C3536.98 134.704 3514.79 102.321 3518 95.1754C3521.2 88.0296 3537.8 72.6906 3545.71 65.9144L3613.44 174.642L3564.18 57.2901L3585.42 45.5856L3629.45 155.546L3613.44 43.4296L3634.38 40.0414L3642.07 115.812C3648.95 128.749 3663.5 152.034 3666.7 141.685C3669.91 131.336 3654.49 61.3969 3646.38 27.721L3666.7 18.4807L3693.18 122.28L3707.96 129.365L3703.96 36.3453L3734.44 23.1008L3748.29 136.449L3750.45 27.721H3772Z" fill="#1E1E1E"/>
</g>
<defs>
<clipPath id="clip0_337_156">
<rect width="3772" height="178" fill="white"/>
</clipPath>
</defs>
</svg>
