<svg width="16" height="28" viewBox="0 0 16 28" fill="none" xmlns="http://www.w3.org/2000/svg">
<path d="M3.1705 27.4459L15.5944 15.0343C15.7419 14.8865 15.8466 14.7265 15.9085 14.5541C15.9705 14.3817 16.001 14.197 16 14C16 13.803 15.969 13.6183 15.9071 13.4459C15.8451 13.2735 15.7409 13.1135 15.5944 12.9657L3.1705 0.51715C2.82642 0.172383 2.39631 0 1.88018 0C1.36405 0 0.921658 0.184697 0.552994 0.55409C0.184331 0.923483 0 1.35444 0 1.84697C0 2.33949 0.184331 2.77045 0.552994 3.13984L11.3917 14L0.552994 24.8602C0.208909 25.2049 0.0368652 25.63 0.0368652 26.1353C0.0368652 26.6406 0.221197 27.0775 0.58986 27.4459C0.958523 27.8153 1.38863 28 1.88018 28C2.37173 28 2.80184 27.8153 3.1705 27.4459Z" fill="#F1F1F1"/>
</svg>
