<svg width="50" height="50" viewBox="0 0 50 50" fill="none" xmlns="http://www.w3.org/2000/svg">
<path d="M40.0346 33.6156V17.3844C40.9363 17.1533 41.7608 16.6878 42.4243 16.035C43.0879 15.3823 43.5669 14.5656 43.8127 13.6678C44.0585 12.7701 44.0624 11.8232 43.824 10.9235C43.5855 10.0237 43.1132 9.20312 42.4551 8.54494C41.7969 7.88676 40.9763 7.41447 40.0765 7.17602C39.1768 6.93757 38.2299 6.94145 37.3322 7.18728C36.4344 7.4331 35.6177 7.91212 34.965 8.57567C34.3122 9.23923 33.8467 10.0637 33.6156 10.9654H17.3844C17.1533 10.0637 16.6878 9.23923 16.035 8.57567C15.3823 7.91212 14.5656 7.4331 13.6678 7.18728C12.7701 6.94145 11.8232 6.93757 10.9235 7.17602C10.0237 7.41447 9.20312 7.88676 8.54494 8.54494C7.88676 9.20312 7.41447 10.0237 7.17602 10.9235C6.93757 11.8232 6.94145 12.7701 7.18728 13.6678C7.4331 14.5656 7.91212 15.3823 8.57567 16.035C9.23923 16.6878 10.0637 17.1533 10.9654 17.3844V33.6156C10.0637 33.8467 9.23923 34.3122 8.57567 34.965C7.91212 35.6177 7.4331 36.4344 7.18728 37.3322C6.94145 38.2299 6.93757 39.1768 7.17602 40.0765C7.41447 40.9763 7.88676 41.7969 8.54494 42.4551C9.20312 43.1132 10.0237 43.5855 10.9235 43.824C11.8232 44.0624 12.7701 44.0585 13.6678 43.8127C14.5656 43.5669 15.3823 43.0879 16.035 42.4243C16.6878 41.7608 17.1533 40.9363 17.3844 40.0346H33.6156C33.8467 40.9363 34.3122 41.7608 34.965 42.4243C35.6177 43.0879 36.4344 43.5669 37.3322 43.8127C38.2299 44.0585 39.1768 44.0624 40.0765 43.824C40.9763 43.5855 41.7969 43.1132 42.4551 42.4551C43.1132 41.7969 43.5855 40.9763 43.824 40.0765C44.0624 39.1768 44.0585 38.2299 43.8127 37.3322C43.5669 36.4344 43.0879 35.6177 42.4243 34.965C41.7608 34.3122 40.9363 33.8467 40.0346 33.6156ZM38.7133 9.64405C39.236 9.64405 39.7469 9.79904 40.1815 10.0894C40.6161 10.3798 40.9548 10.7925 41.1548 11.2754C41.3548 11.7583 41.4071 12.2896 41.3052 12.8023C41.2032 13.3149 40.9515 13.7858 40.5819 14.1553C40.2124 14.5249 39.7415 14.7766 39.2289 14.8786C38.7162 14.9806 38.1849 14.9282 37.702 14.7282C37.2191 14.5282 36.8064 14.1895 36.516 13.7549C36.2256 13.3203 36.0706 12.8094 36.0706 12.2867C36.0713 11.586 36.35 10.9143 36.8454 10.4188C37.3409 9.92339 38.0126 9.64475 38.7133 9.64405ZM9.64405 12.2867C9.64405 11.764 9.79904 11.2531 10.0894 10.8185C10.3798 10.3839 10.7925 10.0452 11.2754 9.84521C11.7583 9.64519 12.2896 9.59286 12.8023 9.69483C13.3149 9.79679 13.7858 10.0485 14.1553 10.4181C14.5249 10.7876 14.7766 11.2585 14.8786 11.7711C14.9806 12.2838 14.9282 12.8151 14.7282 13.298C14.5282 13.7809 14.1895 14.1936 13.7549 14.484C13.3203 14.7744 12.8094 14.9294 12.2867 14.9294C11.586 14.9287 10.9143 14.65 10.4188 14.1546C9.92339 13.6591 9.64475 12.9874 9.64405 12.2867ZM12.2867 41.356C11.764 41.356 11.2531 41.201 10.8185 40.9106C10.3839 40.6202 10.0452 40.2075 9.84521 39.7246C9.64519 39.2417 9.59286 38.7104 9.69483 38.1977C9.79679 37.6851 10.0485 37.2142 10.4181 36.8447C10.7876 36.4751 11.2585 36.2234 11.7711 36.1214C12.2838 36.0194 12.8151 36.0718 13.298 36.2718C13.7809 36.4718 14.1936 36.8105 14.484 37.2451C14.7744 37.6797 14.9294 38.1906 14.9294 38.7133C14.9287 39.414 14.65 40.0857 14.1546 40.5812C13.6591 41.0766 12.9874 41.3553 12.2867 41.356ZM33.6156 37.392H17.3844C17.1477 36.4835 16.673 35.6546 16.0092 34.9908C15.3454 34.327 14.5165 33.8523 13.608 33.6156V17.3844C14.5164 17.1476 15.3452 16.6728 16.009 16.009C16.6728 15.3452 17.1476 14.5164 17.3844 13.608H33.6156C33.8523 14.5165 34.327 15.3454 34.9908 16.0092C35.6546 16.673 36.4835 17.1477 37.392 17.3844V33.6156C36.4835 33.8522 35.6545 34.3268 34.9907 34.9907C34.3268 35.6545 33.8522 36.4835 33.6156 37.392ZM38.7133 41.356C38.1906 41.356 37.6797 41.201 37.2451 40.9106C36.8105 40.6202 36.4718 40.2075 36.2718 39.7246C36.0718 39.2417 36.0194 38.7104 36.1214 38.1977C36.2234 37.6851 36.4751 37.2142 36.8447 36.8447C37.2142 36.4751 37.6851 36.2234 38.1977 36.1214C38.7104 36.0194 39.2417 36.0718 39.7246 36.2718C40.2075 36.4718 40.6202 36.8105 40.9106 37.2451C41.201 37.6797 41.356 38.1906 41.356 38.7133C41.3549 39.4138 41.0761 40.0854 40.5808 40.5808C40.0854 41.0761 39.4138 41.3549 38.7133 41.356Z" fill="#F1F1F1"/>
</svg>
